<svg width="241" height="224" viewBox="0 0 241 224" fill="none" xmlns="http://www.w3.org/2000/svg">
<path d="M227.404 0.149826C223.419 0.85237 220.978 3.61244 218.149 6.8095C214.253 11.2099 208.913 17.24 200.09 18.7957C195.193 19.6593 189.21 17.0963 184.396 15.0385C179.806 13.0714 175.847 11.3794 171.673 12.1153C167.785 12.8008 163.151 16.0169 162.886 22.8268C162.523 32.0657 170.182 40.1722 174.772 44.1826C176.552 45.7385 178.572 47.2781 180.742 48.687C161.104 59.2728 115.482 78.1278 19.4876 95.0542C2.63726 98.0253 -0.575055 115.432 0.0780364 124.327C0.163448 125.87 0.99948 139.665 4.777 150.681C17.8667 188.947 56.3618 225.523 125.139 213.396C127.76 212.934 130.238 212.471 132.619 212.003C138.017 219.194 144.373 223.873 149.153 221.872C153.232 220.159 155.34 213.909 155.815 206.269C157.93 205.589 160.022 204.841 162.087 204.026C170.099 215.806 180.956 225.244 192.008 223.295C193.195 223.086 194.34 222.75 195.444 222.286C211.151 215.708 211.805 187.187 206.31 166.556C229.204 134.335 225.556 70.8351 223.833 51.7172C241.777 39.1006 241.784 23.6209 239.606 11.2641C237.501 -0.671907 229.734 -0.261168 227.404 0.149826ZM123.655 204.981C55.3619 217.023 23.4192 178.784 12.8565 147.912C9.2833 137.488 8.60267 123.787 8.60267 123.787L8.60119 123.779C10.4585 123.405 12.3138 123.036 14.167 122.672C16.5309 135.438 21.0239 148.15 27.8672 159.307C34.759 170.69 44.1724 180.504 55.2146 187.624C66.2258 194.814 78.6696 199.352 91.3224 201.755C104.002 204.187 116.917 204.634 129.668 203.873C127.723 204.238 125.767 204.609 123.655 204.981ZM129.67 203.864C116.892 203.996 104.077 202.911 91.7159 199.902C79.3696 196.926 67.502 191.891 57.305 184.496C47.0913 177.13 38.6806 167.544 32.7052 156.459C26.755 145.569 23.1615 133.653 21.4845 121.264C25.7044 120.476 29.939 119.77 34.1862 119.146C36.2548 133.756 42.1912 147.594 50.8837 159.175C59.7867 170.994 71.4376 180.463 84.8266 186.762C98.0297 193.024 112.481 196.08 126.834 196.46C136.708 196.758 146.514 195.736 156.151 193.902C156.604 194.797 157.075 195.692 157.565 196.586C150.471 199.238 141.617 201.571 129.67 203.864ZM73.6969 155.725C83.2056 166.941 95.5348 175.43 108.966 180.623C122.401 185.837 136.992 187.767 151.132 186.129C151.629 186.071 152.118 185.968 152.623 185.9C153.545 188.323 154.632 190.826 155.876 193.352C146.263 194.735 136.558 195.297 126.914 194.581C112.808 193.58 98.8844 189.949 86.477 183.378C74.0602 176.852 63.2745 167.349 55.418 155.859C47.7397 144.641 42.8471 131.557 41.5551 118.202C46.3017 117.665 51.0524 117.274 55.8044 117.087C58.1341 131.357 64.3214 144.718 73.6969 155.725ZM63.2818 117.005C64.0636 117.01 64.8452 116.989 65.6265 117.016C69.5451 117.097 73.4293 117.475 77.2932 118.009C80.778 137.428 96.1203 156.313 117.385 167.309C127.471 172.551 138.501 175.728 149.83 176.654C150.278 178.653 150.821 180.726 151.553 182.935C151.684 183.333 151.848 183.746 151.989 184.151C151.646 184.177 151.301 184.233 150.953 184.256C137.05 185.193 123.126 182.75 110.372 177.135C97.7273 171.577 86.4232 162.973 78.0328 152.145C70.0754 141.953 64.983 129.822 63.2818 117.005ZM214.795 47.3504C216.262 57.7851 221.642 122.103 202.696 156.196C201.044 159.225 199.088 162.076 196.862 164.712C203.072 183.495 202.419 210.102 192.15 214.407C191.625 214.625 191.083 214.782 190.525 214.881C180.263 216.69 165.556 198.061 159.66 180.243C158.735 177.461 158.11 174.873 157.698 172.438C155.892 172.579 154.262 172.61 152.813 172.588C141.136 171.996 129.722 168.902 119.345 163.514C99.7691 153.388 85.5524 136.334 81.8104 118.705C85.8788 119.422 89.9353 120.317 93.9798 121.391C98.668 122.491 103.494 124.152 108.696 123.712C113.953 123.114 118.098 119.685 121.162 115.974C117.495 119.119 113.247 121.964 108.574 121.863C103.965 121.926 99.4046 120.075 94.7719 118.601C85.4134 115.366 75.6197 113.564 65.7226 113.256C55.8783 113.034 46.0405 113.922 36.3949 115.902C26.9178 117.781 17.616 120.385 8.59303 123.732C8.54734 123.055 7.47222 105.862 20.9609 103.484C170.51 77.114 199.94 46.1911 199.94 46.1911C190.024 47.9397 171.032 32.8343 171.407 23.1767C171.472 21.5037 172.09 20.7267 173.141 20.5412C177.555 19.763 189.652 29.3211 201.558 27.2217C218.577 24.2208 225.481 9.1737 228.876 8.57502C229.922 8.38188 230.624 9.5335 231.192 12.7521C233.593 26.371 231.816 37.5252 214.795 47.3504Z" fill="#A068EB" fill-opacity="0.3"/>
</svg>
