<svg width="223" height="97" viewBox="0 0 223 97" fill="none" xmlns="http://www.w3.org/2000/svg">
<g opacity="0.3" filter="url(#filter0_fn_561_662)">
<path d="M26.0039 26.3736C26.4612 27.8328 27.7028 32.6883 29.41 40.3882C31.6474 50.479 31.7741 54.078 32.7441 56.9023C33.1269 58.0168 34.795 62.8992 34.795 62.8992C36.3762 64.3528 39.8577 56.2574 42.8164 49.0035C44.3799 45.1701 46.4643 44.0188 47.1995 43.7383C51.2104 42.2078 51.4798 53.1066 52.377 56.047C52.8363 57.5521 54.6038 64.5347 57.1979 61.6614C59.792 58.788 63.2359 44.483 65.6817 40.3833C69.5355 33.9236 71.0334 29.4356 72.3929 26.5297C72.8094 25.6394 73.7065 26.6334 74.4479 29.5869C75.1893 32.5404 76.0124 37.6018 76.4136 43.5379C76.8147 49.474 76.769 56.1313 76.7683 59.7661C76.7676 63.4008 76.8134 63.8112 76.7683 63.6806C74.9887 58.5208 76.2591 48.9102 76.5362 47.0372C76.8103 45.1847 76.9977 44.0174 77.4342 43.5338C79.3276 41.436 84.8839 44.1984 90.0291 45.0012C91.0837 45.1657 91.4495 45.1656 91.798 44.9148C93.4561 43.7217 93.7138 40.896 95.3531 36.2498C97.0515 31.4362 97.3694 28.5927 97.4151 27.5999C97.4233 27.4222 97.5523 27.9295 97.4165 33.1581C97.2807 38.3867 96.9149 48.3271 96.3377 56.047C95.7605 63.767 94.9831 68.9652 94.7427 70.9363C94.6745 71.4953 95.9753 68.3959 99.4404 63.0588C101.914 59.2491 106.518 53.6635 111.364 48.0369C116.21 42.4104 121.332 37.0298 124.13 34.1668C128.697 29.4949 131.594 26.5159 131.621 26.1905C131.723 24.9686 128.744 29.8045 126.419 36.3831C124.939 40.5693 123.682 46.7464 122.882 51.946C122.083 57.1455 121.991 61.2494 121.784 63.2951C121.577 65.3408 121.257 65.204 118.211 62.8992C115.165 60.5944 109.403 56.1258 106.183 53.687C102.512 50.906 101.622 50.4647 101 49.9825C100.688 49.7406 100.424 49.4546 101.54 49.4505C102.656 49.4463 105.171 49.7199 109.393 49.8609C113.616 50.0018 119.469 50.0018 122.713 49.9334C126.419 49.8553 127.48 49.2681 129.387 48.0093C132.854 45.7206 136.613 42.0525 140.094 38.2395C141.813 36.3558 143.162 34.3353 143.847 34.26C144.532 34.1847 144.44 36.0543 142.93 43.2415C141.419 50.4288 138.493 62.8771 139.82 67.9447C141.148 73.0124 146.818 70.3221 150.494 68.7082C155.605 66.4639 159.428 65.7581 163.028 65.1363C164.429 64.8945 164.982 64.9249 164.808 59.3163C164.633 53.7077 163.718 42.4905 163.202 36.4612C162.685 30.4319 162.593 29.9303 163.735 30.2419C167.409 31.2444 171.626 33.1415 176.273 33.556C178.993 33.7986 182.476 33.697 182.894 33.697C188.642 33.697 174.752 33.9733 171.887 34.5924C170.599 34.8705 169.525 34.9406 168.603 35.2597C164.558 36.6609 165.088 45.0109 164.465 48.6919C163.682 53.3266 163.469 58.0907 164.589 60.146C166.242 63.177 171.86 57.6071 175.062 56.3904C180.345 54.3835 181.341 53.5502 181.53 53.4334C182.514 52.8259 176.388 55.8342 170.967 58.8465C164.923 62.2053 163.055 64.0005 162.984 64.7121C162.796 66.6092 165.171 67.6829 166.605 69.3403C167.205 69.9407 170.094 70.1756 177.496 69.7424C182.292 69.3092 189.197 68.4429 197.004 67.2739" stroke="#A068EB" stroke-width="22" stroke-linecap="round"/>
</g>
<path d="M68.5639 36.001H71.0039V64.001H60.4039L49.0839 44.801L37.8039 64.001H27.2039V36.001H29.6039V62.521L45.8039 36.001H52.4039L68.5639 62.521V36.001ZM89.4939 39.681C96.2139 39.681 101.654 45.121 101.654 51.841V64.001H99.2139V51.841C99.2139 49.161 97.0539 46.961 94.3339 46.961H74.8539V64.001H72.4539V33.601H74.8539V39.681H89.4939ZM135.935 39.681H138.375V64.001H135.935V59.121C133.735 62.081 130.175 64.001 126.215 64.001H112.815C106.095 64.001 100.655 58.561 100.655 51.841C100.655 45.121 106.095 39.681 112.815 39.681H126.215C130.175 39.681 133.735 41.601 135.935 44.561V39.681ZM131.055 56.721C133.775 56.721 135.935 54.521 135.935 51.841C135.935 49.161 133.775 46.961 131.055 46.961H107.935C105.255 46.961 103.055 49.161 103.055 51.841C103.055 54.521 105.255 56.721 107.935 56.721H131.055ZM144.669 56.721H161.709V64.001H139.829V33.601H142.229C147.629 33.601 149.549 36.721 149.549 39.681C149.549 42.361 147.509 45.361 145.589 48.281C143.989 50.641 142.349 53.041 142.349 54.601C142.349 55.961 142.749 56.721 144.669 56.721ZM147.109 39.681C147.109 37.321 145.389 36.001 142.229 36.001V48.881C142.669 48.241 143.109 47.601 143.549 46.921C145.309 44.321 147.109 41.641 147.109 39.681ZM170.485 51.841C168.005 51.841 167.125 53.241 167.125 54.281C167.125 55.321 168.005 56.721 170.485 56.721H192.405V64.001H172.925C166.205 64.001 160.765 58.561 160.765 51.841C160.765 45.121 166.205 39.681 172.925 39.681H192.405V46.961V55.481H191.165C184.365 55.481 180.565 54.561 177.725 53.601C177.125 53.401 176.605 53.241 176.125 53.041C174.165 52.361 172.725 51.841 170.485 51.841ZM164.685 54.281C164.685 51.681 166.885 49.401 170.485 49.401C173.165 49.401 175.045 50.081 177.045 50.801C177.525 50.961 178.005 51.121 178.485 51.281C180.925 52.121 184.165 52.961 189.965 53.041V46.961H168.045C165.365 46.961 163.165 49.161 163.165 51.841C163.165 53.321 163.845 54.641 164.885 55.521C164.765 55.121 164.685 54.721 164.685 54.281Z" fill="white"/>
<defs>
<filter id="filter0_fn_561_662" x="0" y="0" width="223.006" height="97.001" filterUnits="userSpaceOnUse" color-interpolation-filters="sRGB">
<feFlood flood-opacity="0" result="BackgroundImageFix"/>
<feBlend mode="normal" in="SourceGraphic" in2="BackgroundImageFix" result="shape"/>
<feGaussianBlur stdDeviation="7.5" result="effect1_foregroundBlur_561_662"/>
<feTurbulence type="fractalNoise" baseFrequency="2 2" stitchTiles="stitch" numOctaves="3" result="noise" seed="2152" />
<feColorMatrix in="noise" type="luminanceToAlpha" result="alphaNoise" />
<feComponentTransfer in="alphaNoise" result="coloredNoise1">
<feFuncA type="discrete" tableValues="1 1 1 1 1 1 1 1 1 1 1 1 1 1 1 1 1 1 1 1 1 1 1 1 1 1 1 1 1 1 1 1 1 1 1 1 1 1 1 1 1 1 1 1 1 1 1 1 1 1 1 0 0 0 0 0 0 0 0 0 0 0 0 0 0 0 0 0 0 0 0 0 0 0 0 0 0 0 0 0 0 0 0 0 0 0 0 0 0 0 0 0 0 0 0 0 0 0 0 0 "/>
</feComponentTransfer>
<feComposite operator="in" in2="effect1_foregroundBlur_561_662" in="coloredNoise1" result="noise1Clipped" />
<feFlood flood-color="rgba(0, 0, 0, 0.25)" result="color1Flood" />
<feComposite operator="in" in2="noise1Clipped" in="color1Flood" result="color1" />
<feMerge result="effect2_noise_561_662">
<feMergeNode in="effect1_foregroundBlur_561_662" />
<feMergeNode in="color1" />
</feMerge>
</filter>
</defs>
</svg>
