<svg width="655" height="211" viewBox="0 0 655 211" fill="none" xmlns="http://www.w3.org/2000/svg">
<g opacity="0.3" filter="url(#filter0_fn_454_168)">
<path d="M26.0039 27.3176C27.6165 32.4733 31.9948 49.6295 38.015 76.8357C45.9046 112.49 46.3515 125.207 49.7721 135.186C51.1218 139.124 57.0039 156.375 57.0039 156.375C62.5798 161.511 74.8569 132.907 85.29 107.277C90.8034 93.7318 98.1538 89.6638 100.746 88.6727C114.89 83.2652 115.84 121.774 119.004 132.164C120.623 137.482 126.856 162.154 136.004 152.001C145.152 141.848 157.296 91.3043 165.92 76.8186C179.51 53.9942 184.792 38.1367 189.586 27.8693C191.055 24.7234 194.218 28.2355 196.833 38.6713C199.447 49.107 202.35 66.9907 203.764 87.9648C205.179 108.939 205.018 132.462 205.015 145.304C205.013 158.147 205.174 159.597 205.015 159.136C198.74 140.904 203.219 106.947 204.197 100.329C205.163 93.7836 205.824 89.659 207.363 87.9502C214.04 80.5379 233.633 90.2985 251.777 93.1351C255.496 93.7165 256.786 93.7161 258.015 92.83C263.862 88.6141 264.77 78.63 270.551 62.2134C276.54 45.2056 277.661 35.1585 277.822 31.6506C277.851 31.0225 278.306 32.815 277.827 51.2894C277.348 69.7638 276.058 104.887 274.023 132.164C271.988 159.441 269.246 177.808 268.399 184.772C268.158 186.748 272.745 175.796 284.964 156.939C293.686 143.478 309.922 123.742 327.01 103.861C344.099 83.9809 362.159 64.9695 372.028 54.8535C388.131 38.3463 398.349 27.8205 398.444 26.6707C398.802 22.3531 388.298 39.4402 380.098 62.6846C374.88 77.4758 370.447 99.3014 367.627 117.673C364.808 136.045 364.485 150.545 363.755 157.773C363.024 165.002 361.895 164.518 351.155 156.375C340.414 148.231 320.096 132.442 308.742 123.825C295.795 113.999 292.658 112.439 290.464 110.736C289.363 109.881 288.431 108.871 292.367 108.856C296.303 108.841 305.172 109.808 320.062 110.306C334.951 110.804 355.592 110.804 367.031 110.562C380.1 110.286 383.841 108.211 390.565 103.764C402.79 95.6771 416.048 82.7164 428.321 69.2438C434.384 62.5881 439.142 55.4491 441.556 55.183C443.97 54.9169 443.647 61.5226 438.321 86.9176C432.995 112.313 422.674 156.297 427.356 174.202C432.037 192.108 452.033 182.602 464.994 176.9C483.018 168.97 496.5 166.476 509.196 164.279C514.133 163.425 516.086 163.532 515.47 143.715C514.854 123.898 511.629 84.2641 509.806 62.9604C507.984 41.6568 507.661 39.8845 511.688 40.9854C524.643 44.5277 539.512 51.2308 555.901 52.6955C565.492 53.5526 577.773 53.1935 579.249 53.1935C599.516 53.1935 550.536 54.17 540.433 56.3572C535.894 57.3399 532.104 57.5875 528.854 58.7153C514.589 63.6662 516.457 93.1693 514.263 106.176C511.5 122.552 510.749 139.385 514.7 146.647C520.526 157.356 540.338 137.676 551.63 133.377C570.259 126.286 573.771 123.342 574.438 122.929C577.909 120.782 556.307 131.412 537.191 142.055C515.875 153.923 509.288 160.266 509.039 162.78C508.375 169.483 516.75 173.277 521.808 179.133C523.924 181.255 534.112 182.085 560.214 180.554C577.123 179.023 601.473 175.962 629.004 171.832" stroke="#A068EB" stroke-width="22" stroke-linecap="round"/>
</g>
<path d="M163.196 55.401H171.004V145.001H137.084L100.86 83.561L64.7639 145.001H30.8439V55.401H38.5239V140.265L90.3639 55.401H111.484L163.196 140.265V55.401ZM230.172 67.177C251.676 67.177 269.084 84.585 269.084 106.089V145.001H261.276V106.089C261.276 97.513 254.364 90.473 245.66 90.473H183.324V145.001H175.644V47.721H183.324V67.177H230.172ZM378.785 67.177H386.593V145.001H378.785V129.385C371.745 138.857 360.353 145.001 347.681 145.001H304.801C283.297 145.001 265.889 127.593 265.889 106.089C265.889 84.585 283.297 67.177 304.801 67.177H347.681C360.353 67.177 371.745 73.321 378.785 82.793V67.177ZM363.169 121.705C371.873 121.705 378.785 114.665 378.785 106.089C378.785 97.513 371.873 90.473 363.169 90.473H289.185C280.609 90.473 273.569 97.513 273.569 106.089C273.569 114.665 280.609 121.705 289.185 121.705H363.169ZM406.732 121.705H461.26V145.001H391.244V47.721H398.924C416.204 47.721 422.348 57.705 422.348 67.177C422.348 75.753 415.82 85.353 409.676 94.697C404.556 102.249 399.308 109.929 399.308 114.921C399.308 119.273 400.588 121.705 406.732 121.705ZM414.54 67.177C414.54 59.625 409.036 55.401 398.924 55.401V96.617C400.332 94.569 401.74 92.521 403.148 90.345C408.78 82.025 414.54 73.449 414.54 67.177ZM489.343 106.089C481.407 106.089 478.591 110.569 478.591 113.897C478.591 117.225 481.407 121.705 489.343 121.705H559.487V145.001H497.151C475.647 145.001 458.239 127.593 458.239 106.089C458.239 84.585 475.647 67.177 497.151 67.177H559.487V90.473V117.737H555.519C533.759 117.737 521.599 114.793 512.511 111.721C510.591 111.081 508.927 110.569 507.391 109.929C501.119 107.753 496.511 106.089 489.343 106.089ZM470.783 113.897C470.783 105.577 477.823 98.281 489.343 98.281C497.919 98.281 503.935 100.457 510.335 102.761C511.871 103.273 513.407 103.785 514.943 104.297C522.751 106.985 533.119 109.673 551.679 109.929V90.473H481.535C472.959 90.473 465.919 97.513 465.919 106.089C465.919 110.825 468.095 115.049 471.423 117.865C471.039 116.585 470.783 115.305 470.783 113.897Z" fill="white"/>
<defs>
<filter id="filter0_fn_454_168" x="0" y="0" width="655.006" height="211.001" filterUnits="userSpaceOnUse" color-interpolation-filters="sRGB">
<feFlood flood-opacity="0" result="BackgroundImageFix"/>
<feBlend mode="normal" in="SourceGraphic" in2="BackgroundImageFix" result="shape"/>
<feGaussianBlur stdDeviation="7.5" result="effect1_foregroundBlur_454_168"/>
<feTurbulence type="fractalNoise" baseFrequency="2 2" stitchTiles="stitch" numOctaves="3" result="noise" seed="2152" />
<feColorMatrix in="noise" type="luminanceToAlpha" result="alphaNoise" />
<feComponentTransfer in="alphaNoise" result="coloredNoise1">
<feFuncA type="discrete" tableValues="1 1 1 1 1 1 1 1 1 1 1 1 1 1 1 1 1 1 1 1 1 1 1 1 1 1 1 1 1 1 1 1 1 1 1 1 1 1 1 1 1 1 1 1 1 1 1 1 1 1 1 0 0 0 0 0 0 0 0 0 0 0 0 0 0 0 0 0 0 0 0 0 0 0 0 0 0 0 0 0 0 0 0 0 0 0 0 0 0 0 0 0 0 0 0 0 0 0 0 0 "/>
</feComponentTransfer>
<feComposite operator="in" in2="effect1_foregroundBlur_454_168" in="coloredNoise1" result="noise1Clipped" />
<feFlood flood-color="rgba(0, 0, 0, 0.25)" result="color1Flood" />
<feComposite operator="in" in2="noise1Clipped" in="color1Flood" result="color1" />
<feMerge result="effect2_noise_454_168">
<feMergeNode in="effect1_foregroundBlur_454_168" />
<feMergeNode in="color1" />
</feMerge>
</filter>
</defs>
</svg>
