<svg width="231" height="78" viewBox="0 0 231 78" fill="none" xmlns="http://www.w3.org/2000/svg">
<mask id="path-1-outside-1_454_359" maskUnits="userSpaceOnUse" x="83.3535" y="43" width="137" height="26" fill="black">
<rect fill="white" x="83.3535" y="43" width="137" height="26"/>
<path d="M117.402 45.6H119.354V68H110.874L101.818 52.64L92.7935 68H84.3135V45.6H86.2335V66.816L99.1935 45.6H104.474L117.402 66.816V45.6ZM134.946 48.544C140.322 48.544 144.674 52.896 144.674 58.272V68H142.722V58.272C142.722 56.128 140.994 54.368 138.818 54.368H123.234V68H121.314V43.68H123.234V48.544H134.946ZM172.899 48.544H174.851V68H172.899V64.096C171.139 66.464 168.291 68 165.123 68H154.403C149.027 68 144.675 63.648 144.675 58.272C144.675 52.896 149.027 48.544 154.403 48.544H165.123C168.291 48.544 171.139 50.08 172.899 52.448V48.544ZM168.995 62.176C171.171 62.176 172.899 60.416 172.899 58.272C172.899 56.128 171.171 54.368 168.995 54.368H150.499C148.355 54.368 146.595 56.128 146.595 58.272C146.595 60.416 148.355 62.176 150.499 62.176H168.995ZM180.686 62.176H194.318V68H176.814V43.68H178.734C183.054 43.68 184.59 46.176 184.59 48.544C184.59 50.688 182.958 53.088 181.422 55.424C180.142 57.312 178.83 59.232 178.83 60.48C178.83 61.568 179.15 62.176 180.686 62.176ZM182.638 48.544C182.638 46.656 181.262 45.6 178.734 45.6V55.904C179.086 55.392 179.438 54.88 179.79 54.336C181.198 52.256 182.638 50.112 182.638 48.544ZM202.138 58.272C200.154 58.272 199.45 59.392 199.45 60.224C199.45 61.056 200.154 62.176 202.138 62.176H219.674V68H204.09C198.714 68 194.362 63.648 194.362 58.272C194.362 52.896 198.714 48.544 204.09 48.544H219.674V54.368V61.184H218.682C213.242 61.184 210.202 60.448 207.93 59.68C207.45 59.52 207.034 59.392 206.65 59.232C205.082 58.688 203.93 58.272 202.138 58.272ZM197.498 60.224C197.498 58.144 199.258 56.32 202.138 56.32C204.282 56.32 205.786 56.864 207.386 57.44C207.77 57.568 208.154 57.696 208.538 57.824C210.49 58.496 213.082 59.168 217.722 59.232V54.368H200.186C198.042 54.368 196.282 56.128 196.282 58.272C196.282 59.456 196.826 60.512 197.658 61.216C197.562 60.896 197.498 60.576 197.498 60.224Z"/>
</mask>
<path d="M117.402 45.6H119.354V68H110.874L101.818 52.64L92.7935 68H84.3135V45.6H86.2335V66.816L99.1935 45.6H104.474L117.402 66.816V45.6ZM134.946 48.544C140.322 48.544 144.674 52.896 144.674 58.272V68H142.722V58.272C142.722 56.128 140.994 54.368 138.818 54.368H123.234V68H121.314V43.68H123.234V48.544H134.946ZM172.899 48.544H174.851V68H172.899V64.096C171.139 66.464 168.291 68 165.123 68H154.403C149.027 68 144.675 63.648 144.675 58.272C144.675 52.896 149.027 48.544 154.403 48.544H165.123C168.291 48.544 171.139 50.08 172.899 52.448V48.544ZM168.995 62.176C171.171 62.176 172.899 60.416 172.899 58.272C172.899 56.128 171.171 54.368 168.995 54.368H150.499C148.355 54.368 146.595 56.128 146.595 58.272C146.595 60.416 148.355 62.176 150.499 62.176H168.995ZM180.686 62.176H194.318V68H176.814V43.68H178.734C183.054 43.68 184.59 46.176 184.59 48.544C184.59 50.688 182.958 53.088 181.422 55.424C180.142 57.312 178.83 59.232 178.83 60.48C178.83 61.568 179.15 62.176 180.686 62.176ZM182.638 48.544C182.638 46.656 181.262 45.6 178.734 45.6V55.904C179.086 55.392 179.438 54.88 179.79 54.336C181.198 52.256 182.638 50.112 182.638 48.544ZM202.138 58.272C200.154 58.272 199.45 59.392 199.45 60.224C199.45 61.056 200.154 62.176 202.138 62.176H219.674V68H204.09C198.714 68 194.362 63.648 194.362 58.272C194.362 52.896 198.714 48.544 204.09 48.544H219.674V54.368V61.184H218.682C213.242 61.184 210.202 60.448 207.93 59.68C207.45 59.52 207.034 59.392 206.65 59.232C205.082 58.688 203.93 58.272 202.138 58.272ZM197.498 60.224C197.498 58.144 199.258 56.32 202.138 56.32C204.282 56.32 205.786 56.864 207.386 57.44C207.77 57.568 208.154 57.696 208.538 57.824C210.49 58.496 213.082 59.168 217.722 59.232V54.368H200.186C198.042 54.368 196.282 56.128 196.282 58.272C196.282 59.456 196.826 60.512 197.658 61.216C197.562 60.896 197.498 60.576 197.498 60.224Z" fill="#995DEA"/>
<path d="M117.402 45.6V45.4908H117.292V45.6H117.402ZM119.354 45.6H119.463V45.4908H119.354V45.6ZM119.354 68V68.1092H119.463V68H119.354ZM110.874 68L110.779 68.0555L110.811 68.1092H110.874V68ZM101.818 52.64L101.912 52.5845L101.817 52.4247L101.723 52.5847L101.818 52.64ZM92.7935 68V68.1092H92.856L92.8877 68.0553L92.7935 68ZM84.3135 68H84.2043V68.1092H84.3135V68ZM84.3135 45.6V45.4908H84.2043V45.6H84.3135ZM86.2335 45.6H86.3427V45.4908H86.2335V45.6ZM86.2335 66.816H86.1243V67.2043L86.3267 66.8729L86.2335 66.816ZM99.1935 45.6V45.4908H99.1323L99.1003 45.5431L99.1935 45.6ZM104.474 45.6L104.567 45.5432L104.535 45.4908H104.474V45.6ZM117.402 66.816L117.308 66.8728L117.511 67.2051V66.816H117.402ZM117.402 45.6V45.7092H119.354V45.6V45.4908H117.402V45.6ZM119.354 45.6H119.244V68H119.354H119.463V45.6H119.354ZM119.354 68V67.8908H110.874V68V68.1092H119.354V68ZM110.874 68L110.968 67.9445L101.912 52.5845L101.818 52.64L101.723 52.6955L110.779 68.0555L110.874 68ZM101.818 52.64L101.723 52.5847L92.6994 67.9447L92.7935 68L92.8877 68.0553L101.912 52.6953L101.818 52.64ZM92.7935 68V67.8908H84.3135V68V68.1092H92.7935V68ZM84.3135 68H84.4227V45.6H84.3135H84.2043V68H84.3135ZM84.3135 45.6V45.7092H86.2335V45.6V45.4908H84.3135V45.6ZM86.2335 45.6H86.1243V66.816H86.2335H86.3427V45.6H86.2335ZM86.2335 66.816L86.3267 66.8729L99.2867 45.6569L99.1935 45.6L99.1003 45.5431L86.1403 66.7591L86.2335 66.816ZM99.1935 45.6V45.7092H104.474V45.6V45.4908H99.1935V45.6ZM104.474 45.6L104.38 45.6568L117.308 66.8728L117.402 66.816L117.495 66.7592L104.567 45.5432L104.474 45.6ZM117.402 66.816H117.511V45.6H117.402H117.292V66.816H117.402ZM144.674 68V68.1092H144.783V68H144.674ZM142.722 68H142.612V68.1092H142.722V68ZM123.234 54.368V54.2588H123.124V54.368H123.234ZM123.234 68V68.1092H123.343V68H123.234ZM121.314 68H121.204V68.1092H121.314V68ZM121.314 43.68V43.5708H121.204V43.68H121.314ZM123.234 43.68H123.343V43.5708H123.234V43.68ZM123.234 48.544H123.124V48.6532H123.234V48.544ZM134.946 48.544V48.6532C140.261 48.6532 144.564 52.9563 144.564 58.272H144.674H144.783C144.783 52.8357 140.382 48.4348 134.946 48.4348V48.544ZM144.674 58.272H144.564V68H144.674H144.783V58.272H144.674ZM144.674 68V67.8908H142.722V68V68.1092H144.674V68ZM142.722 68H142.831V58.272H142.722H142.612V68H142.722ZM142.722 58.272H142.831C142.831 56.0683 141.054 54.2588 138.818 54.2588V54.368V54.4772C140.933 54.4772 142.612 56.1877 142.612 58.272H142.722ZM138.818 54.368V54.2588H123.234V54.368V54.4772H138.818V54.368ZM123.234 54.368H123.124V68H123.234H123.343V54.368H123.234ZM123.234 68V67.8908H121.314V68V68.1092H123.234V68ZM121.314 68H121.423V43.68H121.314H121.204V68H121.314ZM121.314 43.68V43.7892H123.234V43.68V43.5708H121.314V43.68ZM123.234 43.68H123.124V48.544H123.234H123.343V43.68H123.234ZM123.234 48.544V48.6532H134.946V48.544V48.4348H123.234V48.544ZM172.899 48.544V48.4348H172.79V48.544H172.899ZM174.851 48.544H174.96V48.4348H174.851V48.544ZM174.851 68V68.1092H174.96V68H174.851ZM172.899 68H172.79V68.1092H172.899V68ZM172.899 64.096H173.008V63.766L172.811 64.0309L172.899 64.096ZM172.899 52.448L172.811 52.5131L173.008 52.778V52.448H172.899ZM172.899 48.544V48.6532H174.851V48.544V48.4348H172.899V48.544ZM174.851 48.544H174.742V68H174.851H174.96V48.544H174.851ZM174.851 68V67.8908H172.899V68V68.1092H174.851V68ZM172.899 68H173.008V64.096H172.899H172.79V68H172.899ZM172.899 64.096L172.811 64.0309C171.071 66.3721 168.255 67.8908 165.123 67.8908V68V68.1092C168.327 68.1092 171.207 66.5559 172.986 64.1611L172.899 64.096ZM165.123 68V67.8908H154.403V68V68.1092H165.123V68ZM154.403 68V67.8908C149.087 67.8908 144.784 63.5877 144.784 58.272H144.675H144.566C144.566 63.7083 148.966 68.1092 154.403 68.1092V68ZM144.675 58.272H144.784C144.784 52.9563 149.087 48.6532 154.403 48.6532V48.544V48.4348C148.966 48.4348 144.566 52.8357 144.566 58.272H144.675ZM154.403 48.544V48.6532H165.123V48.544V48.4348H154.403V48.544ZM165.123 48.544V48.6532C168.255 48.6532 171.071 50.1719 172.811 52.5131L172.899 52.448L172.986 52.3829C171.207 49.9881 168.327 48.4348 165.123 48.4348V48.544ZM172.899 52.448H173.008V48.544H172.899H172.79V52.448H172.899ZM168.995 62.176V62.2852C171.232 62.2852 173.008 60.4757 173.008 58.272H172.899H172.79C172.79 60.3563 171.11 62.0668 168.995 62.0668V62.176ZM172.899 58.272H173.008C173.008 56.0683 171.232 54.2588 168.995 54.2588V54.368V54.4772C171.11 54.4772 172.79 56.1877 172.79 58.272H172.899ZM168.995 54.368V54.2588H150.499V54.368V54.4772H168.995V54.368ZM150.499 54.368V54.2588C148.294 54.2588 146.486 56.0677 146.486 58.272H146.595H146.704C146.704 56.1883 148.415 54.4772 150.499 54.4772V54.368ZM146.595 58.272H146.486C146.486 60.4763 148.294 62.2852 150.499 62.2852V62.176V62.0668C148.415 62.0668 146.704 60.3557 146.704 58.272H146.595ZM150.499 62.176V62.2852H168.995V62.176V62.0668H150.499V62.176ZM194.318 62.176H194.427V62.0668H194.318V62.176ZM194.318 68V68.1092H194.427V68H194.318ZM176.814 68H176.704V68.1092H176.814V68ZM176.814 43.68V43.5708H176.704V43.68H176.814ZM181.422 55.424L181.512 55.4853L181.513 55.484L181.422 55.424ZM178.734 45.6V45.4908H178.624V45.6H178.734ZM178.734 55.904H178.624V56.2556L178.824 55.9659L178.734 55.904ZM179.79 54.336L179.699 54.2748L179.698 54.2767L179.79 54.336ZM180.686 62.176V62.2852H194.318V62.176V62.0668H180.686V62.176ZM194.318 62.176H194.208V68H194.318H194.427V62.176H194.318ZM194.318 68V67.8908H176.814V68V68.1092H194.318V68ZM176.814 68H176.923V43.68H176.814H176.704V68H176.814ZM176.814 43.68V43.7892H178.734V43.68V43.5708H176.814V43.68ZM178.734 43.68V43.7892C180.872 43.7892 182.306 44.4065 183.204 45.3014C184.104 46.197 184.48 47.383 184.48 48.544H184.59H184.699C184.699 47.337 184.307 46.091 183.359 45.1466C182.409 44.2015 180.915 43.5708 178.734 43.5708V43.68ZM184.59 48.544H184.48C184.48 49.59 184.082 50.7074 183.485 51.8618C182.888 53.0156 182.099 54.1941 181.33 55.364L181.422 55.424L181.513 55.484C182.28 54.3179 183.075 53.1284 183.679 51.9622C184.281 50.7966 184.699 49.642 184.699 48.544H184.59ZM181.422 55.424L181.331 55.3627C180.692 56.3055 180.041 57.2617 179.55 58.1387C179.062 59.0112 178.72 59.8251 178.72 60.48H178.83H178.939C178.939 59.8869 179.253 59.1168 179.741 58.2453C180.226 57.3783 180.871 56.4305 181.512 55.4853L181.422 55.424ZM178.83 60.48H178.72C178.72 61.0289 178.8 61.4906 179.102 61.811C179.406 62.1323 179.908 62.2852 180.686 62.2852V62.176V62.0668C179.927 62.0668 179.501 61.9157 179.261 61.661C179.019 61.4054 178.939 61.0191 178.939 60.48H178.83ZM182.638 48.544H182.747C182.747 47.5705 182.39 46.8003 181.699 46.277C181.013 45.7571 180.01 45.4908 178.734 45.4908V45.6V45.7092C179.985 45.7092 180.934 45.9709 181.568 46.451C182.197 46.9277 182.528 47.6295 182.528 48.544H182.638ZM178.734 45.6H178.624V55.904H178.734H178.843V45.6H178.734ZM178.734 55.904L178.824 55.9659C179.175 55.454 179.528 54.9408 179.881 54.3953L179.79 54.336L179.698 54.2767C179.347 54.8192 178.996 55.33 178.644 55.8421L178.734 55.904ZM179.79 54.336L179.88 54.3972C180.583 53.3582 181.299 52.2976 181.838 51.2999C182.375 50.3051 182.747 49.3568 182.747 48.544H182.638H182.528C182.528 49.2992 182.18 50.2069 181.645 51.1961C181.113 52.1824 180.404 53.2338 179.699 54.2748L179.79 54.336ZM219.674 62.176H219.783V62.0668H219.674V62.176ZM219.674 68V68.1092H219.783V68H219.674ZM219.674 48.544H219.783V48.4348H219.674V48.544ZM219.674 61.184V61.2932H219.783V61.184H219.674ZM207.93 59.68L207.965 59.5765L207.965 59.5764L207.93 59.68ZM206.65 59.232L206.692 59.131L206.686 59.1288L206.65 59.232ZM207.386 57.44L207.349 57.5428L207.352 57.5436L207.386 57.44ZM208.538 57.824L208.574 57.7207L208.573 57.7204L208.538 57.824ZM217.722 59.232L217.721 59.3412L217.831 59.3427V59.232H217.722ZM217.722 54.368H217.831V54.2588H217.722V54.368ZM197.658 61.216L197.588 61.2994L197.869 61.537L197.763 61.1846L197.658 61.216ZM202.138 58.272V58.1628C201.125 58.1628 200.425 58.449 199.977 58.8551C199.529 59.2603 199.341 59.778 199.341 60.224H199.45H199.559C199.559 59.838 199.723 59.3797 200.124 59.0169C200.523 58.655 201.167 58.3812 202.138 58.3812V58.272ZM199.45 60.224H199.341C199.341 60.67 199.529 61.1877 199.977 61.5929C200.425 61.999 201.125 62.2852 202.138 62.2852V62.176V62.0668C201.167 62.0668 200.523 61.793 200.124 61.4311C199.723 61.0683 199.559 60.61 199.559 60.224H199.45ZM202.138 62.176V62.2852H219.674V62.176V62.0668H202.138V62.176ZM219.674 62.176H219.565V68H219.674H219.783V62.176H219.674ZM219.674 68V67.8908H204.09V68V68.1092H219.674V68ZM204.09 68V67.8908C198.775 67.8908 194.471 63.5877 194.471 58.272H194.362H194.253C194.253 63.7083 198.654 68.1092 204.09 68.1092V68ZM194.362 58.272H194.471C194.471 52.9563 198.775 48.6532 204.09 48.6532V48.544V48.4348C198.654 48.4348 194.253 52.8357 194.253 58.272H194.362ZM204.09 48.544V48.6532H219.674V48.544V48.4348H204.09V48.544ZM219.674 48.544H219.565V54.368H219.674H219.783V48.544H219.674ZM219.674 54.368H219.565V61.184H219.674H219.783V54.368H219.674ZM219.674 61.184V61.0748H218.682V61.184V61.2932H219.674V61.184ZM218.682 61.184V61.0748C213.254 61.0748 210.226 60.3406 207.965 59.5765L207.93 59.68L207.895 59.7835C210.179 60.5554 213.231 61.2932 218.682 61.2932V61.184ZM207.93 59.68L207.965 59.5764C207.481 59.4152 207.071 59.2892 206.692 59.1312L206.65 59.232L206.608 59.3328C206.997 59.4948 207.419 59.6248 207.896 59.7836L207.93 59.68ZM206.65 59.232L206.686 59.1288C205.119 58.585 203.951 58.1628 202.138 58.1628V58.272V58.3812C203.91 58.3812 205.046 58.791 206.614 59.3352L206.65 59.232ZM197.498 60.224H197.607C197.607 58.2154 199.307 56.4292 202.138 56.4292V56.32V56.2108C199.21 56.2108 197.389 58.0726 197.389 60.224H197.498ZM202.138 56.32V56.4292C204.261 56.4292 205.75 56.9669 207.349 57.5427L207.386 57.44L207.423 57.3373C205.823 56.7611 204.303 56.2108 202.138 56.2108V56.32ZM207.386 57.44L207.352 57.5436C207.736 57.6716 208.12 57.7996 208.504 57.9276L208.538 57.824L208.573 57.7204C208.189 57.5924 207.805 57.4644 207.421 57.3364L207.386 57.44ZM208.538 57.824L208.503 57.9273C210.465 58.6029 213.069 59.277 217.721 59.3412L217.722 59.232L217.724 59.1228C213.096 59.059 210.515 58.3891 208.574 57.7207L208.538 57.824ZM217.722 59.232H217.831V54.368H217.722H217.613V59.232H217.722ZM217.722 54.368V54.2588H200.186V54.368V54.4772H217.722V54.368ZM200.186 54.368V54.2588C197.982 54.2588 196.173 56.0677 196.173 58.272H196.282H196.391C196.391 56.1883 198.103 54.4772 200.186 54.4772V54.368ZM196.282 58.272H196.173C196.173 59.4902 196.733 60.576 197.588 61.2994L197.658 61.216L197.729 61.1326C196.92 60.448 196.391 59.4218 196.391 58.272H196.282ZM197.658 61.216L197.763 61.1846C197.669 60.8712 197.607 60.5622 197.607 60.224H197.498H197.389C197.389 60.5898 197.456 60.9208 197.554 61.2474L197.658 61.216Z" fill="white" mask="url(#path-1-outside-1_454_359)"/>
<path fill-rule="evenodd" clip-rule="evenodd" d="M0.353516 75.588C6.95919 77.583 10.7133 77.9749 17.6224 75.588L17.6315 75.5849C17.8048 75.5268 17.9749 75.468 18.142 75.4084C18.142 75.4084 20.3288 74.5682 21.2881 73.9839C34.3148 66.0488 31.762 38.9163 50.6282 33.1121C45.5219 32.9309 42.0511 33.4561 35.8661 36.0367C29.9184 39.0531 26.0754 43.5658 23.75 45.646C19.1581 49.7537 16.5314 50.1218 12.193 48.5421C8.3304 47.1356 5.35394 41.1895 6.74659 37.3916C7.23549 36.0583 8.0492 34.9266 8.64118 34.9266C10.3284 34.9266 12.9999 36.4321 15.0742 34.3207C15.2749 34.1163 16.3188 33.0538 16.6549 31.7243C16.0448 31.1249 13.5853 30.0087 11.5401 30.0188C10.0702 30.026 9.01042 30.5488 8.20524 31.2203C8.22656 29.9665 7.98961 28.535 6.86525 27.2309C5.62321 25.7904 3.45306 24.863 2.72142 24.863C2.12944 26.047 2.12944 27.5365 2.12944 27.8229C2.12944 30.7828 4.49735 32.5587 5.08932 33.1507C5.5629 33.6243 5.28612 34.5293 5.08852 34.9226C4.00258 37.0693 3.22063 38.573 2.44249 41.1895C0.0699399 48.2483 1.12076 55.6458 2.44249 58.5977C4.64012 63.5057 6.64666 65.8773 10.4111 70.0174C7.63361 72.342 4.5441 74.0226 0.353516 75.588ZM30.214 49.5815C30.214 48.3996 29.3152 47.4391 28.2116 47.4391C27.1095 47.4391 26.2122 48.3996 26.2122 49.5815C26.2122 50.7468 27.108 51.7073 28.2116 51.7073C29.3152 51.7073 30.214 50.7468 30.214 49.5815Z" fill="url(#paint0_linear_454_359)"/>
<path d="M50.6282 33.1121C31.762 38.9163 34.3148 66.0488 21.2881 73.9839C20.3288 74.5682 18.142 75.4084 18.142 75.4084C17.9749 75.468 17.8048 75.5268 17.6315 75.5849C53.8198 83.4175 63.2237 48.8573 50.6282 33.1121Z" fill="white"/>
<path d="M28.2116 47.4391C29.3152 47.4391 30.214 48.3996 30.214 49.5815C30.214 50.7468 29.3152 51.7073 28.2116 51.7073C27.108 51.7073 26.2122 50.7468 26.2122 49.5815C26.2122 48.3996 27.1095 47.4391 28.2116 47.4391Z" fill="white"/>
<path d="M50.6282 33.1121C45.5219 32.9309 42.0511 33.4561 35.8661 36.0367C29.9184 39.0531 26.0754 43.5658 23.75 45.646C19.1581 49.7537 16.5314 50.1218 12.193 48.5421C8.3304 47.1356 5.35394 41.1895 6.74659 37.3916C7.23549 36.0583 8.0492 34.9266 8.64118 34.9266C10.3284 34.9266 12.9999 36.4321 15.0742 34.3207C15.2749 34.1163 16.3188 33.0538 16.6549 31.7243C16.0448 31.1249 13.5853 30.0087 11.5401 30.0188C10.0702 30.026 9.01042 30.5488 8.20524 31.2203C8.22656 29.9665 7.98961 28.535 6.86525 27.2309C5.62321 25.7904 3.45306 24.863 2.72142 24.863C2.12944 26.047 2.12944 27.5365 2.12944 27.8229C2.12944 30.7828 4.49735 32.5587 5.08932 33.1507C5.5629 33.6243 5.28612 34.5293 5.08852 34.9226C4.00258 37.0693 3.22063 38.573 2.44249 41.1895C0.0699399 48.2483 1.12076 55.6458 2.44249 58.5977C4.64012 63.5057 6.64666 65.8773 10.4111 70.0174M50.6282 33.1121C31.762 38.9163 34.3148 66.0488 21.2881 73.9839C20.3288 74.5682 18.142 75.4084 18.142 75.4084C17.9749 75.468 17.8048 75.5268 17.6315 75.5849M50.6282 33.1121C63.2237 48.8573 53.8198 83.4175 17.6315 75.5849M17.6224 75.588C10.7133 77.9749 6.95919 77.583 0.353516 75.588C4.5441 74.0226 7.63361 72.342 10.4111 70.0174M17.6224 75.588C17.6254 75.587 17.6285 75.5859 17.6315 75.5849M17.6224 75.588L17.6315 75.5849M19.015 59.9903C15.8853 64.4433 13.3192 67.5834 10.4111 70.0174M28.2116 47.439C29.3152 47.439 30.214 48.3996 30.214 49.5815C30.214 50.7468 29.3152 51.7073 28.2116 51.7073C27.108 51.7073 26.2122 50.7468 26.2122 49.5815C26.2122 48.3996 27.1095 47.439 28.2116 47.439Z" stroke="#242424" stroke-width="0.705763" stroke-linecap="round" stroke-linejoin="round"/>
<path d="M61.8245 38.1225C65.0485 31.7949 62.5327 24.0518 56.2051 20.8278C49.8775 17.6037 42.1344 20.1196 38.9104 26.4472" stroke="#55378B" stroke-width="1.5205" stroke-linecap="round" stroke-linejoin="round"/>
<path d="M67.036 40.9225C71.7753 31.621 68.077 20.2386 58.7755 15.4993C49.474 10.7599 38.0916 14.4583 33.3522 23.7598" stroke="#7A4FC8" stroke-width="1.5205" stroke-linecap="round" stroke-linejoin="round"/>
<path d="M71.6185 43.2575C77.6475 31.425 72.9428 16.9454 61.1102 10.9164C49.2777 4.88746 34.7981 9.59217 28.7691 21.4247" stroke="#9E68FF" stroke-width="1.5205" stroke-linecap="round" stroke-linejoin="round"/>
<defs>
<linearGradient id="paint0_linear_454_359" x1="34.3342" y1="34.3655" x2="16.0905" y2="73.9167" gradientUnits="userSpaceOnUse">
<stop offset="0.544381" stop-color="#945EF1"/>
<stop offset="1" stop-color="#55368B"/>
</linearGradient>
</defs>
</svg>
