<svg width="119" height="106" viewBox="0 0 119 106" fill="none" xmlns="http://www.w3.org/2000/svg">
<path d="M72.5426 41.546C65.2105 41.2857 60.2268 42.0398 51.3458 45.7454C42.8056 50.0766 37.2875 56.5564 33.9484 59.5433C27.3549 65.4416 23.5833 65.97 17.3538 63.7018C11.8075 61.6822 7.5336 53.1443 9.53329 47.6909C10.2353 45.7764 11.4037 44.1514 12.2537 44.1514C14.6764 44.1514 18.5123 46.3131 21.4908 43.2813C21.7791 42.9879 23.278 41.4623 23.7606 39.5532C22.8846 38.6926 19.353 37.0898 16.4163 37.1043C14.3057 37.1147 12.7839 37.8653 11.6278 38.8295C11.6584 37.0292 11.3181 34.9737 9.70368 33.1012C7.92024 31.0328 4.80413 29.7012 3.75357 29.7012C2.90356 31.4012 2.90356 33.5399 2.90356 33.9512C2.90356 38.2013 6.30362 40.7514 7.15363 41.6014C7.83365 42.2814 7.43621 43.5809 7.15249 44.1456C5.59319 47.228 4.47039 49.3873 3.35306 53.1443C-0.053669 63.28 1.4552 73.9019 3.35306 78.1405C6.50862 85.1879 9.3898 88.5933 14.7951 94.538M72.5426 41.546C45.4528 49.8802 49.1183 88.8396 30.4133 100.233C29.0359 101.073 25.8958 102.279 25.8958 102.279C25.656 102.364 25.4117 102.449 25.1629 102.532M72.5426 41.546C90.6284 64.1544 77.1254 113.779 25.1629 102.532M25.1498 102.537C15.2291 105.964 9.83857 105.401 0.353516 102.537C6.37075 100.289 10.807 97.876 14.7951 94.538M25.1498 102.537C25.1541 102.535 25.1585 102.534 25.1629 102.532M25.1498 102.537L25.1629 102.532M27.1495 80.1402C22.6555 86.5343 18.9709 91.0431 14.7951 94.538M40.3547 62.1179C41.9394 62.1179 43.23 63.4972 43.23 65.1942C43.23 66.8675 41.9394 68.2467 40.3547 68.2467C38.7701 68.2467 37.4838 66.8675 37.4838 65.1942C37.4838 63.4972 38.7723 62.1179 40.3547 62.1179Z" stroke="white" stroke-width="0.705763" stroke-linecap="round" stroke-linejoin="round"/>
<path d="M88.6176 54.74C93.247 45.6543 89.6345 34.5361 80.5488 29.9067C71.4631 25.2773 60.3448 28.8898 55.7154 37.9755" stroke="white" stroke-width="1.5205" stroke-linecap="round" stroke-linejoin="round"/>
<path d="M96.099 58.7601C102.904 45.4041 97.5938 29.0602 84.2378 22.255C70.8818 15.4498 54.538 20.7603 47.7328 34.1162" stroke="white" stroke-width="1.5205" stroke-linecap="round" stroke-linejoin="round"/>
<path d="M102.678 62.1132C111.335 45.123 104.58 24.3318 87.5897 15.6748C70.5995 7.01786 49.8083 13.7733 41.1513 30.7636" stroke="white" stroke-width="1.5205" stroke-linecap="round" stroke-linejoin="round"/>
</svg>
