<svg width="82" height="82" viewBox="0 0 82 82" fill="none" xmlns="http://www.w3.org/2000/svg">
<circle cx="39" cy="39" r="25.5" fill="url(#paint0_linear_510_8)" stroke="#B94B72" stroke-width="3"/>
<path d="M41.96 41.4H36.84L36.48 23H42.32L41.96 41.4ZM42.76 48.24C42.76 49.3333 42.44 50.16 41.8 50.72C41.16 51.2533 40.36 51.52 39.4 51.52C38.44 51.52 37.64 51.24 37 50.68C36.36 50.12 36.04 49.3067 36.04 48.24C36.04 47.2 36.36 46.4 37 45.84C37.6667 45.28 38.4667 45 39.4 45C40.36 45 41.16 45.28 41.8 45.84C42.44 46.4 42.76 47.2 42.76 48.24Z" fill="white"/>
<g filter="url(#filter0_d_510_8)">
<circle cx="39" cy="39" r="25.5" fill="url(#paint1_linear_510_8)" stroke="#B94B72" stroke-width="3"/>
<path d="M41.96 41.4H36.84L36.48 23H42.32L41.96 41.4ZM42.76 48.24C42.76 49.3333 42.44 50.16 41.8 50.72C41.16 51.2533 40.36 51.52 39.4 51.52C38.44 51.52 37.64 51.24 37 50.68C36.36 50.12 36.04 49.3067 36.04 48.24C36.04 47.2 36.36 46.4 37 45.84C37.6667 45.28 38.4667 45 39.4 45C40.36 45 41.16 45.28 41.8 45.84C42.44 46.4 42.76 47.2 42.76 48.24Z" fill="white"/>
</g>
<defs>
<filter id="filter0_d_510_8" x="0" y="0" width="82" height="82" filterUnits="userSpaceOnUse" color-interpolation-filters="sRGB">
<feFlood flood-opacity="0" result="BackgroundImageFix"/>
<feColorMatrix in="SourceAlpha" type="matrix" values="0 0 0 0 0 0 0 0 0 0 0 0 0 0 0 0 0 0 127 0" result="hardAlpha"/>
<feOffset dx="2" dy="2"/>
<feGaussianBlur stdDeviation="7"/>
<feComposite in2="hardAlpha" operator="out"/>
<feColorMatrix type="matrix" values="0 0 0 0 0.72549 0 0 0 0 0.294118 0 0 0 0 0.447059 0 0 0 0.7 0"/>
<feBlend mode="normal" in2="BackgroundImageFix" result="effect1_dropShadow_510_8"/>
<feBlend mode="normal" in="SourceGraphic" in2="effect1_dropShadow_510_8" result="shape"/>
</filter>
<linearGradient id="paint0_linear_510_8" x1="23" y1="22" x2="54" y2="58" gradientUnits="userSpaceOnUse">
<stop stop-color="#BA456E"/>
<stop offset="1" stop-color="#6F2851"/>
</linearGradient>
<linearGradient id="paint1_linear_510_8" x1="23" y1="22" x2="54" y2="58" gradientUnits="userSpaceOnUse">
<stop stop-color="#BA456E"/>
<stop offset="1" stop-color="#6F2851"/>
</linearGradient>
</defs>
</svg>
