<svg width="61" height="61" viewBox="0 0 61 61" fill="none" xmlns="http://www.w3.org/2000/svg">
<circle cx="28.5" cy="28.5" r="20" fill="url(#paint0_linear_561_376)" stroke="#B94B72" stroke-width="3"/>
<path d="M32.4795 35.9926H27.3595L26.9995 17.5926H32.8395L32.4795 35.9926ZM33.2795 42.8326C33.2795 43.9259 32.9595 44.7526 32.3195 45.3126C31.6795 45.8459 30.8795 46.1126 29.9195 46.1126C28.9595 46.1126 28.1595 45.8326 27.5195 45.2726C26.8795 44.7126 26.5595 43.8993 26.5595 42.8326C26.5595 41.7926 26.8795 40.9926 27.5195 40.4326C28.1862 39.8726 28.9862 39.5926 29.9195 39.5926C30.8795 39.5926 31.6795 39.8726 32.3195 40.4326C32.9595 40.9926 33.2795 41.7926 33.2795 42.8326Z" fill="white"/>
<g filter="url(#filter0_d_561_376)">
<circle cx="28.5" cy="28.5" r="20" fill="url(#paint1_linear_561_376)" stroke="#B94B72" stroke-width="3"/>
<path d="M30.368 32.32H26.272L25.984 17.6H30.656L30.368 32.32ZM31.008 37.792C31.008 38.6667 30.752 39.328 30.24 39.776C29.728 40.2027 29.088 40.416 28.32 40.416C27.552 40.416 26.912 40.192 26.4 39.744C25.888 39.296 25.632 38.6453 25.632 37.792C25.632 36.96 25.888 36.32 26.4 35.872C26.9333 35.424 27.5733 35.2 28.32 35.2C29.088 35.2 29.728 35.424 30.24 35.872C30.752 36.32 31.008 36.96 31.008 37.792Z" fill="white"/>
</g>
<defs>
<filter id="filter0_d_561_376" x="0" y="0" width="61" height="61" filterUnits="userSpaceOnUse" color-interpolation-filters="sRGB">
<feFlood flood-opacity="0" result="BackgroundImageFix"/>
<feColorMatrix in="SourceAlpha" type="matrix" values="0 0 0 0 0 0 0 0 0 0 0 0 0 0 0 0 0 0 127 0" result="hardAlpha"/>
<feOffset dx="2" dy="2"/>
<feGaussianBlur stdDeviation="4.5"/>
<feComposite in2="hardAlpha" operator="out"/>
<feColorMatrix type="matrix" values="0 0 0 0 0.72549 0 0 0 0 0.294118 0 0 0 0 0.447059 0 0 0 0.7 0"/>
<feBlend mode="normal" in2="BackgroundImageFix" result="effect1_dropShadow_561_376"/>
<feBlend mode="normal" in="SourceGraphic" in2="effect1_dropShadow_561_376" result="shape"/>
</filter>
<linearGradient id="paint0_linear_561_376" x1="15.7593" y1="14.963" x2="40.4444" y2="43.6296" gradientUnits="userSpaceOnUse">
<stop stop-color="#BA456E"/>
<stop offset="1" stop-color="#6F2851"/>
</linearGradient>
<linearGradient id="paint1_linear_561_376" x1="15.7593" y1="14.963" x2="40.4444" y2="43.6296" gradientUnits="userSpaceOnUse">
<stop stop-color="#BA456E"/>
<stop offset="1" stop-color="#6F2851"/>
</linearGradient>
</defs>
</svg>
